<svg xmlns="http://www.w3.org/2000/svg" width="1360" height="820">
<rect width="100%" height="100%" fill="#f8f8f8"/>
<text x="680.0" y="34" text-anchor="middle" font-size="24" font-family="Arial" fill="#2d3748">Humidity : train vs test + model50 weighted loss</text>
<rect x="100" y="72" width="1160" height="652" fill="#fcfcfc" stroke="#c7c7c7" stroke-width="1.2"/>
<line x1="152.7" y1="72" x2="152.7" y2="724" stroke="#d6d6d6" stroke-width="1"/>
<text x="152.7" y="752" text-anchor="middle" font-size="13" font-family="Arial">0.0</text>
<line x1="363.6" y1="72" x2="363.6" y2="724" stroke="#d6d6d6" stroke-width="1"/>
<text x="363.6" y="752" text-anchor="middle" font-size="13" font-family="Arial">0.2</text>
<line x1="574.5" y1="72" x2="574.5" y2="724" stroke="#d6d6d6" stroke-width="1"/>
<text x="574.5" y="752" text-anchor="middle" font-size="13" font-family="Arial">0.4</text>
<line x1="785.5" y1="72" x2="785.5" y2="724" stroke="#d6d6d6" stroke-width="1"/>
<text x="785.5" y="752" text-anchor="middle" font-size="13" font-family="Arial">0.6</text>
<line x1="996.4" y1="72" x2="996.4" y2="724" stroke="#d6d6d6" stroke-width="1"/>
<text x="996.4" y="752" text-anchor="middle" font-size="13" font-family="Arial">0.8</text>
<line x1="1207.3" y1="72" x2="1207.3" y2="724" stroke="#d6d6d6" stroke-width="1"/>
<text x="1207.3" y="752" text-anchor="middle" font-size="13" font-family="Arial">1.0</text>
<line x1="100" y1="724.0" x2="1260" y2="724.0" stroke="#e0e0e0" stroke-width="1"/>
<text x="88" y="728.0" text-anchor="end" font-size="12" font-family="Arial" font-weight="600" fill="#374151">0</text>
<line x1="100" y1="593.6" x2="1260" y2="593.6" stroke="#e0e0e0" stroke-width="1"/>
<text x="88" y="597.6" text-anchor="end" font-size="12" font-family="Arial" font-weight="600" fill="#374151">4.2k</text>
<line x1="100" y1="463.2" x2="1260" y2="463.2" stroke="#e0e0e0" stroke-width="1"/>
<text x="88" y="467.2" text-anchor="end" font-size="12" font-family="Arial" font-weight="600" fill="#374151">8.4k</text>
<line x1="100" y1="332.8" x2="1260" y2="332.8" stroke="#e0e0e0" stroke-width="1"/>
<text x="88" y="336.8" text-anchor="end" font-size="12" font-family="Arial" font-weight="600" fill="#374151">12.6k</text>
<line x1="100" y1="202.4" x2="1260" y2="202.4" stroke="#e0e0e0" stroke-width="1"/>
<text x="88" y="206.4" text-anchor="end" font-size="12" font-family="Arial" font-weight="600" fill="#374151">16.8k</text>
<line x1="100" y1="72.0" x2="1260" y2="72.0" stroke="#e0e0e0" stroke-width="1"/>
<text x="88" y="76.0" text-anchor="end" font-size="12" font-family="Arial" font-weight="600" fill="#374151">21k</text>
<text x="1272" y="728.0" text-anchor="start" font-size="12" font-family="Arial" fill="#dc2626">0.000</text>
<text x="1272" y="597.6" text-anchor="start" font-size="12" font-family="Arial" fill="#dc2626">0.018</text>
<text x="1272" y="467.2" text-anchor="start" font-size="12" font-family="Arial" fill="#dc2626">0.036</text>
<text x="1272" y="336.8" text-anchor="start" font-size="12" font-family="Arial" fill="#dc2626">0.054</text>
<text x="1272" y="206.4" text-anchor="start" font-size="12" font-family="Arial" fill="#dc2626">0.072</text>
<text x="1272" y="76.0" text-anchor="start" font-size="12" font-family="Arial" fill="#dc2626">0.090</text>
<text x="680.0" y="796" text-anchor="middle" font-size="16" font-family="Arial">Humidity</text>
<text x="28" y="398.0" text-anchor="middle" font-size="16" font-family="Arial" fill="#2d3748" transform="rotate(-90 28 398.0)">Number of rows</text>
<text x="1332" y="398.0" text-anchor="middle" font-size="16" font-family="Arial" fill="#dc2626" transform="rotate(90 1332 398.0)">Loss</text>
<line x1="363.6" y1="72" x2="363.6" y2="724" stroke="#b9b9b9" stroke-width="1.2" stroke-dasharray="6,6"/>
<line x1="785.5" y1="72" x2="785.5" y2="724" stroke="#b9b9b9" stroke-width="1.2" stroke-dasharray="6,6"/>
<line x1="1207.3" y1="72" x2="1207.3" y2="724" stroke="#b9b9b9" stroke-width="1.2" stroke-dasharray="6,6"/>
<polygon points="152.7,724.0 152.7,724.0 163.3,72.0 184.4,72.0 205.5,72.0 226.5,191.6 247.6,333.3 268.7,408.1 289.8,482.3 310.9,564.7 332.0,635.8 353.1,682.6 374.2,707.1 395.3,717.1 416.4,719.2 437.5,717.0 458.5,712.7 479.6,708.4 500.7,706.2 521.8,706.6 542.9,708.8 564.0,711.9 585.1,715.1 606.2,717.6 627.3,717.9 648.4,714.8 669.5,708.4 690.5,701.4 711.6,697.9 732.7,699.5 753.8,704.2 774.9,707.7 796.0,706.9 817.1,700.7 838.2,689.8 859.3,676.4 880.4,663.4 901.5,653.9 922.5,649.5 943.6,650.9 964.7,657.3 985.8,664.9 1006.9,667.4 1028.0,659.5 1049.1,641.4 1070.2,619.2 1091.3,602.3 1112.4,599.4 1133.5,613.7 1154.5,640.7 1175.6,670.9 1196.7,695.7 1207.3,724.0 1207.3,724.0" fill="#4f83cc" fill-opacity="0.28" stroke="none"/>
<polyline points="152.7,724.0 163.3,72.0 184.4,72.0 205.5,72.0 226.5,191.6 247.6,333.3 268.7,408.1 289.8,482.3 310.9,564.7 332.0,635.8 353.1,682.6 374.2,707.1 395.3,717.1 416.4,719.2 437.5,717.0 458.5,712.7 479.6,708.4 500.7,706.2 521.8,706.6 542.9,708.8 564.0,711.9 585.1,715.1 606.2,717.6 627.3,717.9 648.4,714.8 669.5,708.4 690.5,701.4 711.6,697.9 732.7,699.5 753.8,704.2 774.9,707.7 796.0,706.9 817.1,700.7 838.2,689.8 859.3,676.4 880.4,663.4 901.5,653.9 922.5,649.5 943.6,650.9 964.7,657.3 985.8,664.9 1006.9,667.4 1028.0,659.5 1049.1,641.4 1070.2,619.2 1091.3,602.3 1112.4,599.4 1133.5,613.7 1154.5,640.7 1175.6,670.9 1196.7,695.7 1207.3,724.0" fill="none" stroke="#ffffff" stroke-width="6"/>
<polyline points="152.7,724.0 163.3,72.0 184.4,72.0 205.5,72.0 226.5,191.6 247.6,333.3 268.7,408.1 289.8,482.3 310.9,564.7 332.0,635.8 353.1,682.6 374.2,707.1 395.3,717.1 416.4,719.2 437.5,717.0 458.5,712.7 479.6,708.4 500.7,706.2 521.8,706.6 542.9,708.8 564.0,711.9 585.1,715.1 606.2,717.6 627.3,717.9 648.4,714.8 669.5,708.4 690.5,701.4 711.6,697.9 732.7,699.5 753.8,704.2 774.9,707.7 796.0,706.9 817.1,700.7 838.2,689.8 859.3,676.4 880.4,663.4 901.5,653.9 922.5,649.5 943.6,650.9 964.7,657.3 985.8,664.9 1006.9,667.4 1028.0,659.5 1049.1,641.4 1070.2,619.2 1091.3,602.3 1112.4,599.4 1133.5,613.7 1154.5,640.7 1175.6,670.9 1196.7,695.7 1207.3,724.0" fill="none" stroke="#3b6fb6" stroke-width="2.8"/>
<polygon points="152.7,724.0 152.7,724.0 163.3,481.7 184.4,555.0 205.5,612.3 226.5,640.1 247.6,642.3 268.7,636.6 289.8,640.1 310.9,657.6 332.0,681.7 353.1,701.8 374.2,712.1 395.3,711.3 416.4,699.6 437.5,677.0 458.5,647.1 479.6,618.5 500.7,599.8 521.8,591.9 542.9,586.5 564.0,575.7 585.1,561.9 606.2,556.9 627.3,570.5 648.4,600.7 669.5,635.2 690.5,662.4 711.6,679.6 732.7,690.3 753.8,698.2 774.9,703.9 796.0,707.2 817.1,708.3 838.2,707.2 859.3,703.7 880.4,698.2 901.5,692.1 922.5,686.4 943.6,681.3 964.7,674.8 985.8,662.0 1006.9,636.9 1028.0,597.8 1049.1,554.3 1070.2,524.1 1091.3,520.9 1112.4,544.7 1133.5,583.9 1154.5,625.7 1175.6,661.8 1196.7,688.2 1207.3,724.0 1207.3,724.0" fill="#f4a261" fill-opacity="0.26" stroke="none"/>
<polyline points="152.7,724.0 163.3,481.7 184.4,555.0 205.5,612.3 226.5,640.1 247.6,642.3 268.7,636.6 289.8,640.1 310.9,657.6 332.0,681.7 353.1,701.8 374.2,712.1 395.3,711.3 416.4,699.6 437.5,677.0 458.5,647.1 479.6,618.5 500.7,599.8 521.8,591.9 542.9,586.5 564.0,575.7 585.1,561.9 606.2,556.9 627.3,570.5 648.4,600.7 669.5,635.2 690.5,662.4 711.6,679.6 732.7,690.3 753.8,698.2 774.9,703.9 796.0,707.2 817.1,708.3 838.2,707.2 859.3,703.7 880.4,698.2 901.5,692.1 922.5,686.4 943.6,681.3 964.7,674.8 985.8,662.0 1006.9,636.9 1028.0,597.8 1049.1,554.3 1070.2,524.1 1091.3,520.9 1112.4,544.7 1133.5,583.9 1154.5,625.7 1175.6,661.8 1196.7,688.2 1207.3,724.0" fill="none" stroke="#ffffff" stroke-width="6"/>
<polyline points="152.7,724.0 163.3,481.7 184.4,555.0 205.5,612.3 226.5,640.1 247.6,642.3 268.7,636.6 289.8,640.1 310.9,657.6 332.0,681.7 353.1,701.8 374.2,712.1 395.3,711.3 416.4,699.6 437.5,677.0 458.5,647.1 479.6,618.5 500.7,599.8 521.8,591.9 542.9,586.5 564.0,575.7 585.1,561.9 606.2,556.9 627.3,570.5 648.4,600.7 669.5,635.2 690.5,662.4 711.6,679.6 732.7,690.3 753.8,698.2 774.9,703.9 796.0,707.2 817.1,708.3 838.2,707.2 859.3,703.7 880.4,698.2 901.5,692.1 922.5,686.4 943.6,681.3 964.7,674.8 985.8,662.0 1006.9,636.9 1028.0,597.8 1049.1,554.3 1070.2,524.1 1091.3,520.9 1112.4,544.7 1133.5,583.9 1154.5,625.7 1175.6,661.8 1196.7,688.2 1207.3,724.0" fill="none" stroke="#ee8e3a" stroke-width="2.8"/>
<polyline points="163.3,662.5 184.4,653.3 205.5,632.0 226.5,606.7 247.6,589.6 268.7,587.5 289.8,600.9 310.9,626.5 332.0,657.3 353.1,685.4 374.2,705.2 395.3,715.0 416.4,715.9 437.5,709.5 458.5,699.3 479.6,690.7 500.7,688.1 521.8,691.2 542.9,695.9 564.0,699.0 585.1,697.4 606.2,686.5 627.3,664.2 648.4,636.6 669.5,612.8 690.5,594.1 711.6,571.6 732.7,540.6 753.8,511.6 774.9,500.9 796.0,513.2 817.1,537.6 838.2,560.3 859.3,574.2 880.4,577.9 901.5,576.1 922.5,578.0 943.6,591.0 964.7,611.7 985.8,627.3 1006.9,627.5 1028.0,612.8 1049.1,590.9 1070.2,571.2 1091.3,561.7 1112.4,568.1 1133.5,591.2 1154.5,625.9 1175.6,663.0 1196.7,693.1" fill="none" stroke="#ffffff" stroke-width="7"/>
<polyline points="163.3,662.5 184.4,653.3 205.5,632.0 226.5,606.7 247.6,589.6 268.7,587.5 289.8,600.9 310.9,626.5 332.0,657.3 353.1,685.4 374.2,705.2 395.3,715.0 416.4,715.9 437.5,709.5 458.5,699.3 479.6,690.7 500.7,688.1 521.8,691.2 542.9,695.9 564.0,699.0 585.1,697.4 606.2,686.5 627.3,664.2 648.4,636.6 669.5,612.8 690.5,594.1 711.6,571.6 732.7,540.6 753.8,511.6 774.9,500.9 796.0,513.2 817.1,537.6 838.2,560.3 859.3,574.2 880.4,577.9 901.5,576.1 922.5,578.0 943.6,591.0 964.7,611.7 985.8,627.3 1006.9,627.5 1028.0,612.8 1049.1,590.9 1070.2,571.2 1091.3,561.7 1112.4,568.1 1133.5,591.2 1154.5,625.9 1175.6,663.0 1196.7,693.1" fill="none" stroke="#dc2626" stroke-width="3.2"/>
<rect x="992" y="78" width="230" height="92" rx="8" fill="white" fill-opacity="0.94" stroke="#d0d0d0"/>
<line x1="1010" y1="96" x2="1038" y2="96" stroke="#3b6fb6" stroke-width="3"/>
<text x="1050" y="100" font-size="13" font-family="Arial" fill="#1f2937">train</text>
<line x1="1010" y1="120" x2="1038" y2="120" stroke="#ee8e3a" stroke-width="3"/>
<text x="1050" y="124" font-size="13" font-family="Arial" fill="#1f2937">test</text>
<line x1="1010" y1="144" x2="1038" y2="144" stroke="#dc2626" stroke-width="3"/>
<text x="1050" y="148" font-size="13" font-family="Arial" fill="#1f2937">loss</text>
</svg>