<svg xmlns="http://www.w3.org/2000/svg" width="1280" height="720">
<rect width="100%" height="100%" fill="#ffffff"/>
<text x="640.0" y="36" text-anchor="middle" font-size="25" font-family="Arial" fill="#111827">Model50 sample weight by Humidity bin</text>
<text x="640.0" y="60" text-anchor="middle" font-size="13" font-family="Arial" fill="#6b7280">Fixed piecewise weights with train/test row counts as context</text>
<rect x="92" y="76" width="1092" height="526" fill="#fbfbfb" stroke="#d1d5db" stroke-width="1.2"/>
<line x1="92" y1="546.0" x2="1184" y2="546.0" stroke="#e5e7eb" stroke-width="1"/>
<text x="78" y="550.0" text-anchor="end" font-size="13" font-family="Arial" fill="#374151">1.00</text>
<line x1="92" y1="434.1" x2="1184" y2="434.1" stroke="#e5e7eb" stroke-width="1"/>
<text x="78" y="438.1" text-anchor="end" font-size="13" font-family="Arial" fill="#374151">1.10</text>
<line x1="92" y1="266.3" x2="1184" y2="266.3" stroke="#e5e7eb" stroke-width="1"/>
<text x="78" y="270.3" text-anchor="end" font-size="13" font-family="Arial" fill="#374151">1.25</text>
<line x1="92" y1="154.3" x2="1184" y2="154.3" stroke="#e5e7eb" stroke-width="1"/>
<text x="78" y="158.3" text-anchor="end" font-size="13" font-family="Arial" fill="#374151">1.35</text>
<line x1="92" y1="98.4" x2="1184" y2="98.4" stroke="#e5e7eb" stroke-width="1"/>
<text x="78" y="102.4" text-anchor="end" font-size="13" font-family="Arial" fill="#374151">1.40</text>
<text x="1198" y="606.0" font-size="12" font-family="Arial" fill="#6b7280">0</text>
<text x="1198" y="474.5" font-size="12" font-family="Arial" fill="#6b7280">41k</text>
<text x="1198" y="343.0" font-size="12" font-family="Arial" fill="#6b7280">81k</text>
<text x="1198" y="211.5" font-size="12" font-family="Arial" fill="#6b7280">122k</text>
<text x="1198" y="80.0" font-size="12" font-family="Arial" fill="#6b7280">162k</text>
<rect x="130.0" y="115.0" width="51.0" height="487.0" fill="#2563eb" opacity="0.22"/>
<rect x="185.0" y="513.3" width="51.0" height="88.7" fill="#f59e0b" opacity="0.28"/>
<line x1="183.0" y1="602.0" x2="183.0" y2="546.0" stroke="#ef4444" stroke-width="2" opacity="0.55"/>
<circle cx="183.0" cy="546.0" r="7" fill="#dc2626" stroke="#ffffff" stroke-width="2"/>
<text x="183.0" y="533.0" text-anchor="middle" font-size="13" font-family="Arial" fill="#991b1b">1.00</text>
<text x="179.0" y="624.0" text-anchor="end" font-size="12" font-family="Arial" fill="#374151" transform="rotate(-32 179.0 624.0)">[0.00, 0.20)</text>
<rect x="312.0" y="591.4" width="51.0" height="10.6" fill="#2563eb" opacity="0.22"/>
<rect x="367.0" y="535.4" width="51.0" height="66.6" fill="#f59e0b" opacity="0.28"/>
<line x1="365.0" y1="602.0" x2="365.0" y2="434.1" stroke="#ef4444" stroke-width="2" opacity="0.55"/>
<circle cx="365.0" cy="434.1" r="7" fill="#dc2626" stroke="#ffffff" stroke-width="2"/>
<text x="365.0" y="421.1" text-anchor="middle" font-size="13" font-family="Arial" fill="#991b1b">1.10</text>
<text x="361.0" y="624.0" text-anchor="end" font-size="12" font-family="Arial" fill="#374151" transform="rotate(-32 361.0 624.0)">[0.20, 0.39)</text>
<rect x="494.0" y="600.3" width="51.0" height="1.7" fill="#2563eb" opacity="0.22"/>
<rect x="549.0" y="507.7" width="51.0" height="94.3" fill="#f59e0b" opacity="0.28"/>
<line x1="547.0" y1="602.0" x2="547.0" y2="154.3" stroke="#ef4444" stroke-width="2" opacity="0.55"/>
<circle cx="547.0" cy="154.3" r="7" fill="#dc2626" stroke="#ffffff" stroke-width="2"/>
<text x="547.0" y="141.3" text-anchor="middle" font-size="13" font-family="Arial" fill="#991b1b">1.35</text>
<text x="543.0" y="624.0" text-anchor="end" font-size="12" font-family="Arial" fill="#374151" transform="rotate(-32 543.0 624.0)">[0.39, 0.50)</text>
<rect x="676.0" y="580.4" width="51.0" height="21.6" fill="#2563eb" opacity="0.22"/>
<rect x="731.0" y="581.9" width="51.0" height="20.1" fill="#f59e0b" opacity="0.28"/>
<line x1="729.0" y1="602.0" x2="729.0" y2="546.0" stroke="#ef4444" stroke-width="2" opacity="0.55"/>
<circle cx="729.0" cy="546.0" r="7" fill="#dc2626" stroke="#ffffff" stroke-width="2"/>
<text x="729.0" y="533.0" text-anchor="middle" font-size="13" font-family="Arial" fill="#991b1b">1.00</text>
<text x="725.0" y="624.0" text-anchor="end" font-size="12" font-family="Arial" fill="#374151" transform="rotate(-32 725.0 624.0)">[0.50, 0.68)</text>
<rect x="858.0" y="551.8" width="51.0" height="50.2" fill="#2563eb" opacity="0.22"/>
<rect x="913.0" y="574.8" width="51.0" height="27.2" fill="#f59e0b" opacity="0.28"/>
<line x1="911.0" y1="602.0" x2="911.0" y2="266.3" stroke="#ef4444" stroke-width="2" opacity="0.55"/>
<circle cx="911.0" cy="266.3" r="7" fill="#dc2626" stroke="#ffffff" stroke-width="2"/>
<text x="911.0" y="253.3" text-anchor="middle" font-size="13" font-family="Arial" fill="#991b1b">1.25</text>
<text x="907.0" y="624.0" text-anchor="end" font-size="12" font-family="Arial" fill="#374151" transform="rotate(-32 907.0 624.0)">[0.68, 0.80)</text>
<rect x="1040.0" y="516.1" width="51.0" height="85.9" fill="#2563eb" opacity="0.22"/>
<rect x="1095.0" y="462.9" width="51.0" height="139.1" fill="#f59e0b" opacity="0.28"/>
<line x1="1093.0" y1="602.0" x2="1093.0" y2="266.3" stroke="#ef4444" stroke-width="2" opacity="0.55"/>
<circle cx="1093.0" cy="266.3" r="7" fill="#dc2626" stroke="#ffffff" stroke-width="2"/>
<text x="1093.0" y="253.3" text-anchor="middle" font-size="13" font-family="Arial" fill="#991b1b">1.25</text>
<text x="1089.0" y="624.0" text-anchor="end" font-size="12" font-family="Arial" fill="#374151" transform="rotate(-32 1089.0 624.0)">[0.80, 1.00]</text>
<polyline points="183.0,546.0 365.0,434.1 547.0,154.3 729.0,546.0 911.0,266.3 1093.0,266.3" fill="none" stroke="#dc2626" stroke-width="4" stroke-linejoin="round" stroke-linecap="round"/>
<rect x="874" y="100" width="270" height="94" rx="10" fill="#ffffff" opacity="0.94" stroke="#e5e7eb"/>
<rect x="892" y="121" width="28" height="14" fill="#2563eb" opacity="0.22"/>
<text x="930" y="133" font-size="13" font-family="Arial" fill="#111827">train count</text>
<rect x="892" y="146" width="28" height="14" fill="#f59e0b" opacity="0.28"/>
<text x="930" y="158" font-size="13" font-family="Arial" fill="#111827">test count</text>
<line x1="892" y1="176" x2="920" y2="176" stroke="#dc2626" stroke-width="4"/>
<text x="930" y="180" font-size="13" font-family="Arial" fill="#111827">fixed sample weight</text>
<text x="640.0" y="692" text-anchor="middle" font-size="16" font-family="Arial" fill="#111827">Humidity bins</text>
<text x="30" y="339.0" text-anchor="middle" font-size="16" font-family="Arial" fill="#111827" transform="rotate(-90 30 339.0)">Sample weight</text>
<text x="1252" y="339.0" text-anchor="middle" font-size="15" font-family="Arial" fill="#6b7280" transform="rotate(90 1252 339.0)">Number of rows</text>
</svg>